<?xml version="1.0" encoding="utf-8"?>
<!-- Generator: Adobe Illustrator 13.0.0, SVG Export Plug-In . SVG Version: 6.00 Build 14948)  -->
<!DOCTYPE svg PUBLIC "-//W3C//DTD SVG 1.1//EN" "http://www.w3.org/Graphics/SVG/1.1/DTD/svg11.dtd">
<svg version="1.1" id="Layer_1" xmlns="http://www.w3.org/2000/svg" xmlns:xlink="http://www.w3.org/1999/xlink" x="0px" y="0px"
	 width="568.301px" height="236.675px" viewBox="0 0 568.301 236.675" enable-background="new 0 0 568.301 236.675"
	 xml:space="preserve">
<g>
	<polyline fill="#EF6123" points="486.5,98.875 505.1,98.875 505.1,155.275 519.6,155.275 519.6,98.875 538.301,98.875 
		538.301,86.775 486.5,86.775 486.5,98.875 	"/>
	<polyline fill="#EF6123" points="414.5,98.675 414.5,86.775 375,86.775 375,155.275 414.5,155.275 414.5,143.375 389.5,143.375 
		389.5,125.675 412.7,125.675 412.7,113.675 389.5,113.675 389.5,98.675 414.5,98.675 	"/>
	<polyline fill="#EF6123" points="443.301,86.775 428.801,86.775 428.801,155.275 443.301,155.275 443.301,120.576 468.1,155.275 
		484.6,155.275 458.301,119.775 483.301,86.775 467.801,86.775 443.301,119.975 443.301,86.775 	"/>
	<path fill="#EF6123" d="M197.1,85.675c-10.5,0-18.601,3-24.2,9.1c-5.601,6-8.4,14.7-8.4,26.1c0,11.4,2.8,20.101,8.4,26.201
		c5.6,6.199,13.6,9.199,24.1,9.199s18.601-3,24.3-9.199c5.601-6.101,8.4-14.701,8.4-26.101c0-11.4-2.8-20.1-8.3-26.1
		C215.8,88.775,207.7,85.675,197.1,85.675v12.2c11.6,0,17.399,7.7,17.399,23.1c0,15.399-5.899,23.101-17.5,23.101
		c-5.7,0-10-2-13-5.801c-2.899-3.9-4.399-9.699-4.399-17.3c0-7.6,1.5-13.4,4.399-17.3c3-3.9,7.4-5.8,13.101-5.8"/>
	<path fill="#EF6123" d="M253.8,86.875v-0.1H243.9v68.5h21.7c17.8-0.4,26.6-7.5,26.6-21.4c0-6.6-2.399-11.699-7.3-15.399
		c-4.5-3.4-10.899-5.1-19-5.4h-7.4v11.9h3.601c5.7,0,9.7,0.7,11.9,2.101c2.399,1.399,3.5,3.699,3.5,6.799
		c0,3.201-1.101,5.601-3.4,7.201c-2.2,1.5-5.8,2.299-10.7,2.299h-4.9v-18.399v-11.9l18.9-14.2h0.101l15.899-12H253.8"/>
	<polyline fill="#EF6123" points="307.9,93.975 313.801,93.975 313.801,102.175 328.301,113.075 328.301,86.775 301.9,86.775 
		301.9,86.875 293.4,86.875 307.9,97.675 307.9,93.975 	"/>
	<path fill="#EF6123" d="M313.801,113.075v42.2H333.7c9.3,0,16.4-1.8,21.2-5.3c4.7-3.601,7.1-9,7.1-16.101
		c0-6.6-2.399-11.699-7.3-15.399c-4.8-3.6-11.7-5.4-20.7-5.4h-5.699v11.9H332c5.601,0,9.5,0.7,11.9,2.1c2.2,1.4,3.4,3.7,3.4,6.8
		c0,3.2-1.2,5.601-3.4,7.2c-2.3,1.5-5.9,2.3-10.8,2.3h-4.8v-18.399v-11.9L313.801,113.075"/>
</g>
<g>
	<polyline fill="#561720" points="429.9,166.375 428.5,166.375 428.5,177.175 429.9,177.175 429.9,171.975 434.5,177.175 
		436.1,177.175 431.1,171.576 435.801,166.375 434.301,166.375 429.9,171.475 429.9,166.375 	"/>
	<path fill="#561720" d="M437.2,171.775c0,1.1,0.2,2.1,0.601,2.9c0.3,0.899,0.899,1.5,1.7,2c0.6,0.399,1.5,0.699,2.5,0.699
		c1.5,0,2.6-0.5,3.5-1.5c0.899-1,1.3-2.3,1.3-4.1s-0.4-3.1-1.3-4.1c-0.801-1-2-1.5-3.5-1.5v1.3c1,0,1.899,0.3,2.5,1.1
		c0.6,0.7,0.899,1.8,0.899,3.2c0,1.3-0.3,2.4-0.899,3.2c-0.601,0.7-1.5,1.1-2.5,1.1c-1.101,0-2-0.399-2.5-1.1
		c-0.601-0.8-0.9-1.9-0.9-3.2c0-1.4,0.3-2.5,0.9-3.2c0.5-0.8,1.399-1.1,2.5-1.1v-1.3c-1.5,0-2.601,0.5-3.5,1.5
		C437.6,168.576,437.2,169.975,437.2,171.775"/>
	<path fill="#561720" d="M405.801,167.475c0.8,0,1.399,0.2,1.699,0.601c0.4,0.5,0.601,1.199,0.601,2.1v0.5l-1.7,0.1
		c-1.7,0-3,0.301-3.9,0.9c-0.899,0.6-1.3,1.4-1.3,2.5c0,1,0.3,1.8,0.9,2.4c0.6,0.5,1.399,0.799,2.5,0.799c0.8,0,1.5-0.199,2.1-0.5
		c0.5-0.199,1-0.6,1.4-1.199l-1-0.5c-0.601,0.699-1.4,0.9-2.5,0.9c-0.601,0-1.101-0.101-1.5-0.5c-0.3-0.201-0.5-0.701-0.5-1.301
		c0-0.699,0.3-1.3,0.899-1.699c0.5-0.4,1.5-0.5,3-0.601l1.5-0.101v0.801c0,1.1-0.199,1.9-0.899,2.5l1,0.5l0.3,1.5h1v-7.1
		c0-1.301-0.3-2.301-0.9-3c-0.6-0.601-1.5-0.9-2.699-0.9c-1.2,0-2.301,0.3-3.601,0.9l0.4,1.1
		C403.801,167.675,404.801,167.475,405.801,167.475"/>
	<path fill="#561720" d="M415.5,166.375c-1.199,0-2.1,0.301-2.699,0.801c-0.801,0.6-1.101,1.4-1.101,2.4c0,0.899,0.3,1.5,0.7,2
		c0.5,0.5,1.1,0.899,2.1,1l-3.199,4.6h1.5l2.899-4.4h2.9v-1.3h-2.9c-0.8,0-1.5-0.101-1.899-0.5c-0.5-0.3-0.7-0.8-0.7-1.399
		c0-0.601,0.2-1.101,0.6-1.4c0.4-0.4,0.9-0.5,1.7-0.5h3.2v3.8v1.3v4.4H420v-10.801H415.5"/>
	<polyline fill="#561720" points="464.5,167.675 470.5,167.675 470.5,177.175 471.801,177.175 471.801,166.375 463.1,166.375 
		463.1,177.175 464.5,177.175 464.5,167.675 	"/>
	<path fill="#561720" d="M478.9,167.475c0.9,0,1.5,0.2,1.8,0.601c0.3,0.5,0.601,1.199,0.601,2.1v0.5l-1.801,0.1
		c-1.6,0-3,0.301-3.8,0.9c-0.899,0.6-1.3,1.4-1.3,2.5c0,1,0.2,1.8,0.9,2.4c0.6,0.5,1.399,0.799,2.5,0.799c0.7,0,1.5-0.199,2.1-0.5
		c0.5-0.199,1-0.6,1.4-1.199l-1-0.5c-0.601,0.699-1.4,0.9-2.5,0.9c-0.7,0-1.2-0.101-1.5-0.5c-0.3-0.201-0.5-0.701-0.5-1.301
		c0-0.699,0.2-1.3,0.8-1.699c0.5-0.4,1.6-0.5,3-0.601l1.6-0.101v0.801c0,1.1-0.3,1.9-0.899,2.5l1,0.5l0.2,1.5h0.999v-7.1
		c0-1.301-0.199-2.301-0.899-3c-0.601-0.601-1.5-0.9-2.601-0.9c-1.199,0-2.399,0.3-3.6,0.9l0.4,1.1
		C477,167.675,478,167.475,478.9,167.475"/>
	<path fill="#561720" d="M454.6,175.775c-0.101-0.4-0.2-1-0.5-1.699l-3-7.701H449.5v10.801h1.301v-8.4c0.1,0.4,0.199,0.7,0.3,1
		l2.899,7.4h1.101c2-5.1,3.1-7.801,3.3-8.2c0,0,0,0,0-0.101v8.301h1.3v-10.801H458l-3,7.801L454.6,175.775"/>
	<polyline fill="#561720" points="506.801,166.375 505.1,166.375 499.301,175.875 499.4,166.375 498,166.375 498,177.175 
		499.6,177.175 505.5,167.675 505.4,177.175 506.801,177.175 506.801,166.375 	"/>
	<path fill="#561720" d="M510.2,167.175c-0.7,0.6-1.1,1.4-1.1,2.4c0,0.899,0.3,1.5,0.8,2c0.4,0.5,1.1,0.899,2,1l-3.1,4.6h1.5
		l2.8-4.4h2.9v-1.3h-2.9c-0.8,0-1.5-0.101-1.9-0.5c-0.399-0.3-0.7-0.8-0.7-1.399c0-0.601,0.301-1.101,0.601-1.4
		c0.399-0.4,1-0.5,1.8-0.5h3.1v3.8v1.3v4.4h1.4v-10.801h-4.5C511.801,166.375,510.9,166.675,510.2,167.175"/>
	<polyline fill="#561720" points="487.1,166.375 485.801,166.375 485.801,177.175 487.1,177.175 487.1,172.175 493.4,172.175 
		493.4,177.175 494.7,177.175 494.7,166.375 493.4,166.375 493.4,170.975 487.1,170.975 487.1,166.375 	"/>
	<polyline fill="#561720" points="302.5,167.675 308.5,167.675 308.5,177.175 309.9,177.175 309.9,166.375 301.2,166.375 
		301.2,177.175 302.5,177.175 302.5,167.675 	"/>
	<path fill="#561720" d="M317.9,166.175c-1.5,0-2.6,0.4-3.4,1.4l-0.1-1.201h-1.1v15.5h1.3v-4.199c0-0.5,0-1-0.101-1.5v-0.2l0.9-0.8
		c-0.5-0.6-0.8-1.801-0.8-3.4v-0.3c0-1.399,0.3-2.5,0.8-3.101c0.6-0.699,1.4-0.899,2.5-0.899c2.1,0,3.1,1.399,3.1,4.3
		c0,1.4-0.199,2.5-0.8,3.301c-0.6,0.699-1.3,1-2.3,1c-1.2,0-2-0.201-2.5-0.9l-0.9,0.8c0.801,0.899,2,1.399,3.4,1.399
		s2.5-0.5,3.3-1.5s1.3-2.299,1.3-4.1c0-1.8-0.5-3.199-1.199-4.199C320.5,166.675,319.4,166.175,317.9,166.175"/>
	<path fill="#561720" d="M291.5,166.375h-1.3l4,10.601c-0.1,0.2-0.2,0.7-0.5,1.399c-0.2,0.601-0.5,1.101-0.7,1.4
		c-0.199,0.301-0.399,0.5-0.6,0.6c-0.3,0.201-0.5,0.201-0.8,0.201c-0.4,0-0.8,0-1.3-0.101v1.101c0.5,0.199,1,0.299,1.3,0.299
		c0.6,0,1-0.1,1.399-0.299c0.4-0.201,0.7-0.5,1-0.801c0.2-0.4,0.5-1,0.801-1.9l4.8-12.5h-1.3l-2.301,5.9
		c-0.5,1.301-0.899,2.4-1.1,3.1c-0.2-0.5-0.6-1.6-1.1-3.1L291.5,166.375"/>
	<path fill="#561720" d="M344.301,169.076c0-0.9-0.4-1.601-1-2c-0.7-0.5-1.601-0.701-2.801-0.701h-4.6v10.801h4.6
		c1.301,0,2.301-0.301,3-0.801c0.601-0.699,1-1.5,1-2.5c0-0.799-0.199-1.299-0.6-1.799c-0.3-0.301-0.7-0.5-1.1-0.601l-0.5-1
		c-0.4,0.2-1,0.3-2,0.3H337.2v1.301h3.2c1.8,0,2.7,0.6,2.7,1.699c0,1.4-0.8,2.1-2.601,2.1h-3.3v-3.799v-1.301v-3.1h3.2
		c0.9,0,1.5,0.1,1.9,0.3c0.3,0.3,0.5,0.601,0.5,1.2c0,0.5-0.2,1-0.5,1.3l0.5,1c0.3-0.2,0.7-0.5,0.899-0.8
		C344,170.275,344.301,169.775,344.301,169.076"/>
	<path fill="#561720" d="M346.4,176.076c-0.3,0-0.5-0.101-0.8-0.201v1.301c0.399,0,0.7,0.1,0.899,0.1c0.801,0,1.4-0.4,1.9-1
		c0.4-0.699,0.8-1.699,1.1-3c0.2-1.3,0.5-3.199,0.601-5.699h3.399v9.6h1.301v-10.801H349c-0.3,3.4-0.6,5.9-1,7.4
		C347.5,175.275,347,176.076,346.4,176.076"/>
	<path fill="#561720" d="M357.2,169.576c0,0.899,0.3,1.5,0.7,2c0.5,0.5,1.101,0.899,2.101,1l-3.2,4.6h1.5l2.899-4.4h2.9v-1.3h-2.9
		c-0.8,0-1.5-0.101-1.899-0.5c-0.5-0.3-0.7-0.8-0.7-1.399c0-0.601,0.2-1.101,0.6-1.4c0.4-0.4,0.9-0.5,1.7-0.5h3.2v3.8v1.3v4.4h1.4
		v-10.801H361c-1.199,0-2.1,0.301-2.699,0.801C357.5,167.775,357.2,168.576,357.2,169.576"/>
	<path fill="#561720" d="M325.9,168.175c1.1-0.5,2.1-0.7,3.1-0.7c0.801,0,1.4,0.2,1.801,0.601c0.3,0.5,0.5,1.199,0.5,2.1v0.5
		l-1.801,0.1c-1.6,0-2.899,0.301-3.699,0.9c-0.9,0.6-1.4,1.4-1.4,2.5c0,1,0.3,1.8,0.9,2.4c0.6,0.5,1.5,0.799,2.6,0.799
		c0.7,0,1.4-0.199,2-0.5c0.5-0.199,1-0.6,1.5-1.199l-1-0.5c-0.6,0.699-1.5,0.9-2.5,0.9c-0.7,0-1.2-0.101-1.5-0.5
		c-0.4-0.201-0.6-0.701-0.6-1.301c0-0.699,0.3-1.3,0.8-1.699c0.6-0.4,1.7-0.5,3.1-0.601l1.601-0.101v0.801c0,1.1-0.301,1.9-0.9,2.5
		l1,0.5l0.1,1.5h1.101v-7.1c0-1.301-0.3-2.301-0.9-3c-0.6-0.601-1.5-0.9-2.7-0.9c-1.1,0-2.399,0.3-3.6,0.9L325.9,168.175"/>
	<polyline fill="#561720" points="386.1,175.875 386.1,166.375 384.801,166.375 384.801,177.175 398.5,177.175 398.5,180.775 
		399.801,180.775 399.801,175.875 398.4,175.875 398.4,166.375 397.1,166.375 397.1,175.875 392.301,175.875 392.301,166.375 
		391,166.375 391,175.875 386.1,175.875 	"/>
	<path fill="#561720" d="M382,171.775c0-1.8-0.5-3.1-1.199-4.1c-0.801-1-1.9-1.5-3.301-1.5c-1.199,0-2.3,0.399-3.1,1.3
		c-0.8,0.899-1.2,2-1.3,3.5h-3v-4.601h-1.3v10.801h1.3v-5h3c0,1.5,0.399,2.699,1.2,3.699c0.8,1,1.8,1.5,3.2,1.5v-1.3
		c-1,0-1.601-0.399-2.2-1.1c-0.5-0.8-0.8-1.8-0.8-3.2s0.3-2.5,0.8-3.3c0.5-0.7,1.2-1,2.2-1s1.699,0.3,2.3,1.1
		c0.5,0.7,0.7,1.8,0.7,3.2c0,1.3-0.2,2.4-0.7,3.2c-0.601,0.7-1.3,1.1-2.3,1.1v1.3c1.399,0,2.5-0.5,3.3-1.5
		C381.5,174.875,382,173.576,382,171.775"/>
</g>
<g>
	<path fill="#EF6123" d="M121.594,78.992c0,0,0,0,0-0.07l-17.779-17.709c0-0.069-0.07-0.069-0.07,0l-2.51,2.44L85.966,78.921
		c0,0.07,0,0.07,0,0.07l17.779,17.778h0.07L121.594,78.992"/>
	<polyline fill="#999999" points="118.456,113.363 121.594,110.226 121.594,110.156 121.594,86.661 121.594,78.992 103.815,96.77 
		103.745,96.77 103.815,127.935 103.815,128.005 115.667,116.153 118.456,113.363 	"/>
	<polyline fill="#EF6123" points="121.594,110.226 118.456,113.363 124.452,119.29 142.23,101.581 142.23,101.511 124.522,83.732 
		124.452,83.732 121.594,86.661 121.594,110.156 121.594,110.226 	"/>
	<path fill="#999999" d="M142.23,132.885c0-0.069,0-0.069,0-0.14v-0.069v-31.095l-17.778,17.708l0.07,31.234l11.992-11.922
		L142.23,132.885"/>
	<path fill="#666666" d="M121.523,122.008v0.07v25.587l2.859,2.929c0.069,0,0.069,0.07,0.069,0l0.07-0.07l-0.07-31.234l-5.996-5.927
		l-2.789,2.789L121.523,122.008"/>
	<path fill="#EF6123" d="M121.523,122.079v-0.07l-5.856-5.855l-11.853,11.853v-0.07h-0.07l-2.51-2.44v7.321
		c0.069,0.069,0.069,0.069,0,0.069l-2.231,2.231l4.672,4.74L121.523,122.079"/>
	<path fill="#561720" d="M124.383,150.594l-2.859-2.929v5.509h0.07c0,0.069,0,0.069,0,0.139l-17.779,17.778l0,0l-0.07-0.069
		l-2.44-2.44v5.16v0.068l-17.779,17.779v-0.069h-0.139l-17.709-17.71c-0.069,0-0.069-0.068,0-0.068v-5.091l-2.44,2.44h-0.07v-0.069
		h-0.07l-17.708-17.778c0,0,0,0,0-0.069v-5.369l-2.859,2.789l0,0h-0.07l-11.783-11.783l-5.369,5.299v0.279l58.216,58.286h0.279
		l58.217-58.286v-0.279l-5.508-5.508l-11.992,11.922l-0.07,0.07C124.452,150.665,124.452,150.594,124.383,150.594"/>
	<path fill="#999999" d="M121.523,147.666v-25.587l-17.848,17.778l0.139,31.234l0,0l17.779-17.778c0-0.069,0-0.069,0-0.139h-0.07
		V147.666"/>
	<path fill="#EF6123" d="M83.526,37.717c-0.069-0.07-0.139-0.07-0.139,0L65.608,55.426c0,0.07,0,0.07,0,0.07l17.779,17.779
		c0,0,0.069,0,0.139,0l17.709-17.709c0.069-0.07,0.069-0.07,0-0.14L83.526,37.717"/>
	<path fill="#666666" d="M65.608,55.496v8.227l15.339,15.269c0,0.069,0,0.139,0,0.139v7.181l2.44-2.44l0,0V73.274L65.608,55.496"/>
	<path fill="#EF6123" d="M65.608,63.723l-2.44-2.44c0-0.07-0.07-0.07-0.07,0L45.32,78.992c0,0.069,0,0.069,0,0.139L63.098,96.84
		c0,0.07,0.07,0.07,0.07,0l17.779-17.709c0,0,0-0.07,0-0.139L65.608,63.723"/>
	<path fill="#999999" d="M83.526,73.274c-0.069,0-0.139,0-0.139,0v10.597c0.069,0,0.069,0,0.139,0l2.44,2.44v-7.32c0,0,0,0,0-0.07
		l15.269-15.269v-8.087L83.526,73.274"/>
	<polyline fill="#EF6123" points="42.531,83.732 42.461,83.732 24.752,101.511 24.752,101.581 42.461,119.29 48.457,113.363 
		45.32,110.296 45.32,110.226 45.32,86.521 42.531,83.732 	"/>
	<polyline fill="#666666" points="45.32,110.226 45.32,110.296 48.457,113.363 51.176,116.153 63.098,128.005 63.168,128.005 
		63.098,96.84 45.32,79.131 45.32,86.521 45.32,110.226 	"/>
	<polyline fill="#999999" points="51.176,116.153 48.457,113.363 42.461,119.29 42.531,150.594 42.531,150.594 45.389,147.805 
		45.32,122.08 45.32,122.008 51.176,116.153 	"/>
	<polyline fill="#666666" points="24.752,132.676 24.752,132.816 30.678,138.812 42.461,150.594 42.531,150.594 42.461,119.29 
		24.752,101.581 24.752,132.676 	"/>
	<path fill="#EF6123" d="M45.32,122.008v0.071l17.778,17.708l4.741-4.671l-2.231-2.231c0,0,0,0,0-0.069v-7.182l-2.44,2.44v-0.07
		h-0.07l-11.922-11.853L45.32,122.008"/>
	<path fill="#666666" d="M45.32,122.08l0.07,25.726v5.369c0,0.069,0,0.069,0,0.069l17.708,17.778h0.07l-0.07-31.234L45.32,122.08"/>
	<path fill="#EF6123" d="M101.235,101.72c0.069-0.069,0.069-0.069,0-0.139L85.966,86.312l-2.44-2.44c-0.069,0-0.069,0-0.139,0l0,0
		l-2.44,2.44l-15.339,15.269c0,0.069,0,0.069,0,0.069l17.779,17.779c0,0,0.069,0,0.139,0L101.235,101.72"/>
	<path fill="#666666" d="M101.235,101.581c0.069,0.069,0.069,0.069,0,0.139v23.775l2.51,2.44h0.07l-0.07-31.165L85.966,78.992v7.32
		L101.235,101.581"/>
	<path fill="#999999" d="M63.168,96.84c0,0.07-0.07,0.07-0.07,0l0.07,31.166v0.069l2.44-2.44V101.65c0,0,0,0,0-0.069l15.339-15.269
		v-7.181L63.168,96.84"/>
	<path fill="#999999" d="M83.526,119.429c-0.069,0-0.139,0-0.139,0l0.139,31.235l0,0l12.968-12.969l2.51-2.579l2.231-2.231
		c0.069,0,0.069,0,0-0.069v-7.321V101.72L83.526,119.429"/>
	<path fill="#666666" d="M65.608,132.885l2.231,2.231l2.58,2.649l12.968,12.898h0.139l-0.139-31.235L65.608,101.65v23.984v7.182
		C65.608,132.885,65.608,132.885,65.608,132.885"/>
	<path fill="#EF6123" d="M70.419,137.766l-4.741,4.74c-0.069,0.07-0.069,0.07,0,0.07l17.709,17.778c0.069,0,0.139,0,0.139,0
		l17.779-17.708c0-0.07,0-0.07,0-0.141l-4.811-4.811l-12.968,12.969l0,0h-0.139L70.419,137.766"/>
	<path fill="#999999" d="M65.677,142.506l4.741-4.74l-2.58-2.649l-4.741,4.671l0.07,31.234v0.069h0.07l2.44-2.44v-26.074
		C65.608,142.577,65.608,142.577,65.677,142.506"/>
	<path fill="#666666" d="M101.304,142.506c0,0.07,0,0.07,0,0.141v25.935l2.44,2.44l0.07,0.069l-0.139-31.234l-4.672-4.74
		l-2.51,2.579L101.304,142.506"/>
	<path fill="#999999" d="M101.304,173.81v-0.068v-5.16v-25.935l-17.779,17.708c0,0-0.069,0-0.139,0l0.139,31.165v0.069
		L101.304,173.81"/>
	<path fill="#666666" d="M65.677,168.651v5.091c-0.069,0-0.069,0.068,0,0.068l17.709,17.71h0.139l-0.139-31.165l-17.709-17.778
		V168.651"/>
</g>
</svg>
